<svg xmlns="http://www.w3.org/2000/svg" width="19" height="10.66" viewBox="0 0 19 10.66">
  <path id="Arrow-left_-_simple-line-icons" data-name="Arrow-left - simple-line-icons" d="M9.062,0A.589.589,0,0,0,9.29-.044a.6.6,0,0,0,.194-.132A.586.586,0,0,0,9.66-.607a.586.586,0,0,0-.176-.431L1.46-9.062l7.918-7.918a.576.576,0,0,0,.176-.422.576.576,0,0,0-.176-.422A.586.586,0,0,0,8.947-18a.586.586,0,0,0-.431.176L.176-9.484A.576.576,0,0,0,0-9.062a.576.576,0,0,0,.176.422L8.639-.176a.576.576,0,0,0,.2.132A.612.612,0,0,0,9.062,0Z" transform="translate(18.5 10.16) rotate(-90)" fill="#a7a7a7" stroke="#a7a7a7" stroke-miterlimit="10" stroke-width="1"/>
</svg>
