<svg xmlns="http://www.w3.org/2000/svg" width="169" height="50" viewBox="0 0 169 50">
    <g fill="none" fill-rule="evenodd">
        <path stroke="#FFF" d="M167.831 44.118a4.795 4.795 0 0 1-4.802 4.796H5.88a4.803 4.803 0 0 1-4.808-4.796V5.873a4.809 4.809 0 0 1 4.81-4.802h157.147a4.802 4.802 0 0 1 4.802 4.802l.013 38.245h-.012z"/>
        <path fill="#FFF" d="M37.692 24.73c-.038-4.036 3.306-5.998 3.456-6.091-1.89-2.759-4.824-3.135-5.855-3.166-2.464-.259-4.853 1.474-6.108 1.474-1.28 0-3.213-1.452-5.296-1.415-2.68.038-5.188 1.59-6.563 3.995-2.838 4.908-.722 12.133 1.998 16.103 1.36 1.94 2.95 4.107 5.03 4.032 2.029-.088 2.793-1.303 5.248-1.303 2.43 0 3.143 1.29 5.26 1.24 2.18-.037 3.557-1.953 4.872-3.92 1.566-2.228 2.205-4.42 2.23-4.532-.05-.013-4.246-1.615-4.284-6.449l.012.032zM33.684 12.86c1.094-1.368 1.843-3.23 1.635-5.121-1.584.071-3.566 1.097-4.707 2.436-1.01 1.19-1.91 3.117-1.678 4.933 1.779.138 3.607-.889 4.75-2.241v-.007zm33.463 26.544h-2.844l-1.559-4.896h-5.416l-1.484 4.896h-2.768l5.373-16.664h3.32l5.398 16.664h-.02zm-4.873-6.95l-1.409-4.35c-.15-.444-.428-1.49-.839-3.139h-.05c-.165.709-.43 1.756-.793 3.14l-1.384 4.35h4.475zm18.671.794c0 2.044-.55 3.66-1.657 4.846-.99 1.055-2.23 1.582-3.695 1.582-1.59 0-2.717-.564-3.419-1.703h-.05v6.336H69.47V31.349c0-1.285-.034-2.605-.1-3.957h2.35l.15 1.905h.05c.89-1.44 2.242-2.153 4.054-2.153 1.418 0 2.602.56 3.549 1.678.949 1.124 1.422 2.6 1.422 4.429v-.002zm-2.72.098c0-1.17-.263-2.134-.792-2.893-.576-.79-1.352-1.187-2.324-1.187-.66 0-1.258.22-1.791.655-.539.439-.89 1.015-1.052 1.728-.083.338-.126.601-.126.814v2.004c0 .876.27 1.615.806 2.216.536.601 1.232.902 2.089.902 1.006 0 1.788-.389 2.348-1.152.561-.777.842-1.791.842-3.068v-.019zm16.546-.098c0 2.044-.554 3.66-1.66 4.846-.99 1.055-2.217 1.582-3.682 1.582-1.585 0-2.722-.564-3.413-1.703h-.05v6.336h-2.67V31.349c0-1.285-.035-2.605-.101-3.957h2.35l.15 1.905h.05c.89-1.44 2.24-2.153 4.054-2.153 1.428 0 2.606.56 3.557 1.678.952 1.124 1.428 2.6 1.428 4.429l-.014-.002zm-2.722.098c0-1.17-.263-2.134-.793-2.893-.576-.79-1.35-1.187-2.323-1.187-.664 0-1.265.22-1.804.655-.539.439-.89 1.015-1.052 1.728a3.304 3.304 0 0 0-.125.814v2.004c0 .876.263 1.615.801 2.216.539.601 1.228.902 2.092.902 1.002 0 1.791-.389 2.342-1.152.564-.777.84-1.791.84-3.068l.022-.019zm18.177 1.385c0 1.417-.493 2.57-1.481 3.46-1.086.974-2.598 1.46-4.54 1.46-1.794 0-3.232-.338-4.322-1.027l.62-2.216c1.173.713 2.459 1.064 3.86 1.064 1.002 0 1.779-.225 2.343-.676.55-.451.839-1.052.839-1.816 0-.676-.238-1.24-.702-1.703-.463-.463-1.227-.889-2.304-1.29-2.919-1.089-4.384-2.68-4.384-4.77 0-1.365.514-2.492 1.528-3.369 1.015-.864 2.38-1.302 4.083-1.302 1.516 0 2.768.263 3.783.789l-.677 2.179c-.939-.514-2.004-.764-3.193-.764-.94 0-1.679.225-2.205.689-.45.413-.676.914-.676 1.515 0 .663.25 1.202.764 1.64.438.4 1.252.826 2.43 1.29 1.427.576 2.48 1.252 3.168 2.028.677.777 1.015 1.74 1.015 2.893l.051-.074zm8.828-5.34h-2.943v5.836c0 1.482.518 2.224 1.558 2.224.476 0 .873-.042 1.186-.126l.062 2.029c-.526.197-1.227.295-2.079.295-1.064 0-1.878-.321-2.48-.964-.6-.643-.889-1.723-.889-3.24V29.39h-1.753v-2.003h1.753v-2.2l2.618-.792v2.993h2.943v2.003l.024.002zm13.279 3.907c0 1.846-.526 3.362-1.582 4.548-1.106 1.221-2.574 1.828-4.404 1.828-1.753 0-3.156-.583-4.208-1.753s-1.566-2.645-1.566-4.425c0-1.862.539-3.387 1.629-4.573 1.077-1.187 2.542-1.78 4.37-1.78 1.767 0 3.182.584 4.26 1.755 1.026 1.136 1.54 2.602 1.54 4.4h-.039zm-2.768.088c0-1.11-.238-2.061-.718-2.855-.56-.96-1.36-1.44-2.397-1.44-1.073 0-1.889.482-2.449 1.44-.48.794-.716 1.76-.716 2.901 0 1.109.238 2.059.716 2.85.576.965 1.384 1.44 2.425 1.44 1.02 0 1.82-.488 2.397-1.465.493-.801.74-1.765.74-2.867l.002-.004zm11.448-3.65a4.499 4.499 0 0 0-.84-.075c-.939 0-1.665.355-2.179 1.064-.443.626-.666 1.419-.666 2.374V39.4h-2.668l.025-8.24c0-1.39-.035-2.654-.1-3.781h2.325l.097 2.291h.075c.281-.789.727-1.427 1.334-1.903.595-.438 1.238-.651 1.93-.651.247 0 .47.012.668.05v2.542l-.001.03zm11.944 3.093c0 .476-.032.88-.098 1.21h-8.011c.031 1.176.418 2.09 1.162 2.717.677.55 1.548.839 2.62.839 1.187 0 2.268-.188 3.242-.576l.418 1.853c-1.137.488-2.48.739-4.029.739-1.864 0-3.327-.551-4.391-1.653-1.052-1.102-1.59-2.567-1.59-4.42 0-1.816.5-3.319 1.49-4.533 1.04-1.29 2.442-1.929 4.208-1.929 1.74 0 3.044.639 3.933 1.929.714 1.014 1.064 2.279 1.064 3.781l-.018.043zm-2.547-.694c.018-.801-.156-1.477-.518-2.053-.464-.752-1.178-1.115-2.13-1.115-.876 0-1.59.363-2.129 1.09-.45.576-.714 1.264-.789 2.066h5.561l.005.012zM61.391 12.491c0 1.472-.442 2.582-1.325 3.327-.818.689-1.979 1.032-3.485 1.032-.752 0-1.39-.025-1.93-.088V8.709c.69-.112 1.441-.173 2.255-.173 1.428 0 2.518.313 3.244.936.814.701 1.228 1.703 1.228 3.018h.013zm-1.384.035c0-.956-.253-1.688-.759-2.199-.513-.51-1.252-.764-2.23-.764a5.61 5.61 0 0 0-1.064.084v6.11c.163.026.451.038.89.038 1.002 0 1.778-.288 2.317-.839.538-.55.814-1.377.814-2.441l.032.01zm8.724 1.252c0 .907-.26 1.653-.779 2.234-.544.6-1.265.899-2.163.899-.864 0-1.553-.288-2.067-.864-.513-.574-.764-1.299-.764-2.173 0-.914.263-1.665.802-2.246.538-.581 1.252-.864 2.142-.864.864 0 1.565.288 2.091.864.501.564.752 1.29.752 2.166l-.014-.016zm-1.363.041c0-.538-.117-1.001-.35-1.39-.276-.463-.67-.7-1.178-.7-.528 0-.93.237-1.205.713-.235.388-.35.864-.35 1.427 0 .551.116 1.015.35 1.403.285.476.68.714 1.19.714.501 0 .896-.238 1.178-.714.244-.388.365-.864.365-1.415v-.038zm11.201-2.942l-1.847 5.91H75.52l-.764-2.554a19.036 19.036 0 0 1-.476-1.904h-.025c-.113.651-.271 1.29-.474 1.916l-.814 2.567h-1.215l-1.737-5.91h1.349l.667 2.805c.163.663.295 1.302.401 1.903h.025c.097-.488.258-1.114.486-1.878l.84-2.818h1.068l.801 2.768c.196.676.354 1.314.476 1.94h.035c.088-.6.223-1.252.401-1.94l.717-2.755h1.29l-.002-.05zm6.805 5.91h-1.312v-3.38c0-1.04-.396-1.566-1.19-1.566a1.19 1.19 0 0 0-.948.438 1.53 1.53 0 0 0-.364 1.014V16.8h-1.315v-4.22c0-.514-.015-1.077-.046-1.69h1.152l.063.926h.037c.15-.288.38-.526.68-.714a2.282 2.282 0 0 1 1.19-.325c.55 0 1.009.187 1.373.538.454.438.68 1.09.68 1.953v3.544-.025zm3.62 0h-1.313V8.171h1.313V16.787zm7.728-2.993c0 .914-.26 1.653-.777 2.242-.544.6-1.265.901-2.164.901-.868 0-1.558-.288-2.072-.864-.513-.563-.77-1.29-.77-2.166 0-.914.276-1.665.802-2.241.526-.576 1.252-.877 2.141-.877.877 0 1.566.288 2.092.864.501.564.752 1.277.752 2.166l-.004-.025zm-1.363.05c0-.538-.118-1.001-.35-1.39-.276-.463-.67-.7-1.178-.7-.528 0-.93.237-1.202.713-.238.388-.353.864-.353 1.427 0 .551.117 1.015.35 1.403.286.476.682.714 1.193.714.5 0 .893-.238 1.177-.714.243-.4.363-.864.363-1.415v-.038zm7.716 2.968h-1.178l-.1-.676h-.035c-.403.538-.977.814-1.725.814-.557 0-1.008-.176-1.347-.539-.314-.325-.464-.726-.464-1.202 0-.713.3-1.264.902-1.653.601-.375 1.453-.563 2.543-.55v-.113c0-.777-.414-1.165-1.228-1.165-.589 0-1.102.15-1.54.438l-.276-.864c.551-.338 1.227-.5 2.016-.5 1.541 0 2.318.814 2.318 2.441v2.18c0 .588.025 1.063.087 1.402l.027-.013zm-1.363-2.028v-.915c-1.448-.025-2.172.376-2.172 1.19 0 .313.083.538.25.689.17.15.386.238.643.238.288 0 .564-.088.814-.276.25-.175.401-.413.464-.701.012-.063.025-.138.025-.225h-.024zm8.821 2.028h-1.165l-.062-.94h-.035c-.372.727-1.006 1.078-1.897 1.078-.711 0-1.302-.276-1.773-.84-.471-.563-.704-1.276-.704-2.165 0-.952.254-1.728.764-2.317.496-.55 1.102-.826 1.824-.826.801 0 1.352.275 1.665.801h.026V8.171h1.315v7.022c0 .576.012 1.104.05 1.59l-.008.029zm-1.359-2.504v-.977a1.484 1.484 0 0 0-.513-1.202 1.286 1.286 0 0 0-.877-.313c-.489 0-.873.188-1.155.576-.28.388-.42.889-.42 1.49 0 .588.133 1.064.403 1.427.284.389.667.589 1.147.589.43 0 .776-.163 1.037-.488.253-.3.376-.652.376-1.077l.002-.025zm12.585-.514c0 .914-.259 1.653-.776 2.242-.545.6-1.265.901-2.165.901-.864 0-1.555-.288-2.071-.864-.514-.563-.77-1.29-.77-2.166 0-.914.275-1.665.801-2.241.526-.576 1.253-.864 2.154-.864.865 0 1.566.288 2.092.864.501.563.752 1.277.752 2.166l-.017-.038zm-1.36.05c0-.538-.118-1.001-.35-1.39-.279-.463-.67-.7-1.18-.7-.526 0-.927.237-1.203.7-.238.389-.353.864-.353 1.428 0 .55.118 1.014.35 1.402.286.476.682.714 1.193.714.501 0 .896-.238 1.177-.714.243-.388.366-.864.366-1.415v-.025zm8.417 2.968h-1.31v-3.38c0-1.04-.396-1.566-1.19-1.566-.39 0-.705.15-.948.438a1.534 1.534 0 0 0-.376 1.014v3.507h-1.315v-4.222c0-.522-.013-1.084-.05-1.69h1.152l.063.92h.037c.15-.288.376-.52.677-.713a2.23 2.23 0 0 1 1.19-.328c.55 0 1.002.181 1.377.538.451.438.677 1.09.677 1.966v3.531l.016-.015zm8.835-4.921h-1.445v2.867c0 .74.256 1.102.764 1.102.238 0 .432-.012.586-.062l.034 1.002c-.26.087-.601.137-1.02.137-.518 0-.922-.163-1.215-.476-.292-.313-.438-.851-.438-1.59v-3.005h-.862v-.99h.864V9.8l1.285-.388v1.465h1.453v.989l-.006.025zm6.949 4.921h-1.315v-3.356c0-1.052-.395-1.59-1.188-1.59-.608 0-1.024.313-1.252.927a1.685 1.685 0 0 0-.063.475v3.557h-1.31v-8.64h1.312v3.542h.025c.413-.647 1.005-.97 1.773-.97.544 0 .993.177 1.35.534.451.438.677 1.102.677 1.979v3.506l-.009.036zm7.168-3.23c0 .237-.018.438-.05.6h-3.935c.017.589.205 1.027.57 1.34.333.276.763.414 1.29.414.58 0 1.112-.088 1.59-.276l.206.914c-.56.25-1.22.363-1.982.363-.914 0-1.634-.263-2.154-.801-.526-.539-.784-1.265-.784-2.166 0-.89.242-1.628.729-2.217.508-.626 1.196-.939 2.064-.939.85 0 1.494.326 1.929.952.353.5.526 1.127.526 1.866l.001-.05zm-1.252-.339c.01-.388-.076-.726-.255-1.001-.228-.364-.576-.539-1.044-.539-.429 0-.777.188-1.045.539a1.996 1.996 0 0 0-.388 1.026h2.73l.002-.025z"/>
    </g>
</svg>
