<svg xmlns="http://www.w3.org/2000/svg" width="163" height="49" viewBox="0 0 163 49">
  <g id="app-store-google-4d63c31a3e" transform="translate(0.5 0.5)">
    <path id="Path" d="M156,48H6a5.942,5.942,0,0,1-6-6V6A5.942,5.942,0,0,1,6,0H156a5.942,5.942,0,0,1,6,6V42A5.942,5.942,0,0,1,156,48Z" fill="none" stroke="#fff" stroke-miterlimit="10" stroke-width="1"/>
    <path id="Shape" d="M36,7.44a3.516,3.516,0,0,1-2.64-1.08A3.517,3.517,0,0,1,32.28,3.72a3.516,3.516,0,0,1,1.08-2.64,3.766,3.766,0,0,1,5.279,0,3.516,3.516,0,0,1,1.08,2.64A3.517,3.517,0,0,1,38.64,6.36,3.516,3.516,0,0,1,36,7.44Zm0-6.6a2.385,2.385,0,0,0-1.92.841A2.9,2.9,0,0,0,33.24,3.72a2.465,2.465,0,0,0,.841,2.04A2.839,2.839,0,0,0,36,6.6a2.384,2.384,0,0,0,1.92-.84,2.9,2.9,0,0,0,.841-2.04A2.463,2.463,0,0,0,37.92,1.68,2.836,2.836,0,0,0,36,.84ZM3.72,7.44A3.516,3.516,0,0,1,1.08,6.36,3.517,3.517,0,0,1,0,3.72,3.516,3.516,0,0,1,1.08,1.08,3.516,3.516,0,0,1,3.72,0,3.2,3.2,0,0,1,5.16.36a2.651,2.651,0,0,1,1.08.84l-.6.6A2.242,2.242,0,0,0,3.72.96,2.384,2.384,0,0,0,1.8,1.8,2.464,2.464,0,0,0,.96,3.84,2.463,2.463,0,0,0,1.8,5.88a3.139,3.139,0,0,0,1.92.841A2.622,2.622,0,0,0,5.76,5.88a2,2,0,0,0,.6-1.44H3.72V3.48H7.2v.48a3.265,3.265,0,0,1-.84,2.4A3.517,3.517,0,0,1,3.72,7.44Zm38.16-.12h-.84V.12h1.08L45.6,5.76V.12h.959v7.2H45.6L41.88,1.44V7.32Zm-14.639,0h-.96V.96H24.24V.12h4.92V.96H27.12l.121,6.358Zm-4.081,0H22.2V.12h.959v7.2Zm-6.48,0H15.72V.96H13.68V.12h5.04V.96H16.68V7.319Zm-3.96,0H8.52V.12h4.2V.96H9.48V3.24h3v.84h-3V6.36h3.24v.958Z" transform="translate(49.68 8.28)" fill="#fff" stroke="#fff" stroke-miterlimit="10" stroke-width="0.5"/>
    <path id="Shape-2" data-name="Shape" d="M43.56,20.28a4.988,4.988,0,0,1-4.56-3l1.921-.84a2.649,2.649,0,0,0,2.52,1.8c1.728,0,2.759-1.122,2.759-3v-.72h-.12a3.467,3.467,0,0,1-2.64,1.2,4.853,4.853,0,0,1-3.45-1.44,5.048,5.048,0,0,1-1.47-3.6,5.2,5.2,0,0,1,1.515-3.66,4.851,4.851,0,0,1,3.405-1.5A3.947,3.947,0,0,1,46.2,6.72V5.88h2.16V15a5.432,5.432,0,0,1-1.41,4.035A4.708,4.708,0,0,1,43.56,20.28Zm0-12.72a2.975,2.975,0,0,0-2.88,3.12A2.975,2.975,0,0,0,43.56,13.8a2.891,2.891,0,0,0,2.76-3.119A2.892,2.892,0,0,0,43.56,7.56ZM95.4,20.04H93.12L95.4,15,91.44,5.88h2.4l2.64,6.48h.12l2.52-6.48h2.4L95.4,20.04ZM58.32,15.96a4.957,4.957,0,0,1-3.6-1.5,5.219,5.219,0,0,1-1.44-3.66,4.825,4.825,0,0,1,4.8-5.16A4.662,4.662,0,0,1,62.4,8.88l.24.6L55.8,12.36a2.6,2.6,0,0,0,2.52,1.561,2.932,2.932,0,0,0,2.52-1.44l1.68,1.2A4.907,4.907,0,0,1,58.32,15.96Zm-.24-8.4a2.907,2.907,0,0,0-2.64,3L60,8.64A2.122,2.122,0,0,0,58.08,7.56ZM32.4,15.96a5.121,5.121,0,0,1-5.16-5.16A5.046,5.046,0,0,1,32.4,5.64a5.209,5.209,0,0,1,3.66,1.41,5.074,5.074,0,0,1,1.5,3.75A5.046,5.046,0,0,1,32.4,15.96Zm0-8.4a2.975,2.975,0,0,0-2.88,3.12,2.889,2.889,0,1,0,5.76,0A2.908,2.908,0,0,0,32.4,7.56Zm-11.16,8.4a5.121,5.121,0,0,1-5.16-5.16,5.046,5.046,0,0,1,5.16-5.16A5.209,5.209,0,0,1,24.9,7.05a5.074,5.074,0,0,1,1.5,3.75A5.046,5.046,0,0,1,21.24,15.96Zm0-8.4a2.975,2.975,0,0,0-2.88,3.12,2.889,2.889,0,1,0,5.76,0A2.908,2.908,0,0,0,21.24,7.56ZM8.04,15.84A8.087,8.087,0,0,1,0,7.92,8.087,8.087,0,0,1,8.04,0a7.642,7.642,0,0,1,5.4,2.16L11.88,3.72A5.9,5.9,0,0,0,7.92,2.16,5.64,5.64,0,0,0,2.28,7.92a5.576,5.576,0,0,0,5.64,5.76,5.32,5.32,0,0,0,3.96-1.56,4.579,4.579,0,0,0,1.2-2.76H7.92V7.2h7.44a4.539,4.539,0,0,1,.12,1.32,7.264,7.264,0,0,1-1.92,5.04A6.927,6.927,0,0,1,8.04,15.84Zm78.36-.12a4.035,4.035,0,0,1-2.58-.915,3.163,3.163,0,0,1-1.14-2.445,2.963,2.963,0,0,1,1.35-2.49A5.264,5.264,0,0,1,87,9a4.727,4.727,0,0,1,2.28.6V9.48a2.239,2.239,0,0,0-2.4-1.92A2.1,2.1,0,0,0,84.84,8.64L82.8,7.8A4.057,4.057,0,0,1,86.76,5.52a4.547,4.547,0,0,1,4.8,4.2v5.76H89.4v-1.2h-.12A3.382,3.382,0,0,1,86.4,15.72Zm.72-4.8c-1.16,0-2.4.41-2.4,1.561,0,.968,1.076,1.319,1.8,1.319a2.791,2.791,0,0,0,2.641-2.4l-.177-.072A4.325,4.325,0,0,0,87.12,10.92Zm-5.88,4.56H78.96V.48H81.24v15Zm-11.52,0H67.44V.48h5.4a5.19,5.19,0,0,1,3.405,1.26A4.5,4.5,0,0,1,77.76,5.16a4.5,4.5,0,0,1-1.515,3.42A5.19,5.19,0,0,1,72.84,9.84H69.72v5.639Zm0-12.96V7.68h3.24A2.739,2.739,0,0,0,75.6,5.04a2.655,2.655,0,0,0-2.64-2.52ZM52.08,15.48H49.8V.48H52.08v15Z" transform="translate(49.32 20.52)" fill="#fff"/>
    <path id="Path-2" data-name="Path" d="M.48,0A2.346,2.346,0,0,0,0,1.68V28.2a2.374,2.374,0,0,0,.6,1.68L.72,30,15.6,15.12v-.24Z" transform="translate(12 9)" fill="none" stroke="#fff" stroke-miterlimit="10" stroke-width="1"/>
    <path id="Path-3" data-name="Path" d="M4.92,10.2,0,5.28V4.92L4.92,0l.12.12,5.88,3.36c1.68.96,1.68,2.52,0,3.48Z" transform="translate(27.48 18.96)" fill="none" stroke="#fff" stroke-miterlimit="10" stroke-width="1"/>
    <path id="Path-4" data-name="Path" d="M20.04,5.04,15,0,0,15c.6.6,1.44.6,2.52.12L20.04,5.04" transform="translate(12.48 24)" fill="none" stroke="#fff" stroke-miterlimit="10" stroke-width="1"/>
    <path id="Path-5" data-name="Path" d="M20.04,10.354,2.52.394A1.945,1.945,0,0,0,0,.514l15,14.88,5.04-5.04Z" transform="translate(12.48 8.606)" fill="none" stroke="#fff" stroke-miterlimit="10" stroke-width="1"/>
    <path id="Path-6" data-name="Path" d="M19.92,0,2.52,9.84a1.962,1.962,0,0,1-2.4,0L0,9.96l.12.12a1.962,1.962,0,0,0,2.4,0Z" transform="translate(12.48 28.92)" opacity="0.2"/>
    <path id="Shape-3" data-name="Shape" d="M.492,14.76H.48a1.882,1.882,0,0,1-.458-1.193,2.339,2.339,0,0,0,.469,1.191ZM20.52,5.04h0L20.4,4.92l6-3.361c.827-.551,1.186-1.008,1.2-1.528A2.021,2.021,0,0,1,26.4,1.68L20.521,5.04Z" transform="translate(12 24)" opacity="0.12"/>
    <path id="Path-7" data-name="Path" d="M3,.5l23.4,13.32c.72.48,1.2.96,1.2,1.56a2,2,0,0,0-1.2-1.68L3,.5c-1.68-1.08-3-.36-3,1.56v.12C0,.384,1.32-.456,3,.5Z" transform="translate(12 8.616)" fill="#fff" opacity="0.25"/>
  </g>
</svg>
