<svg xmlns="http://www.w3.org/2000/svg" width="19" height="19" viewBox="0 0 19 19">
    <path fill="#FFF" fill-rule="evenodd" d="M18.968 14.384c0 .23-.043.532-.128.903a5.095 5.095 0 0 1-.269.878c-.18.427-.7.88-1.56 1.358-.803.436-1.596.653-2.38.653a5.07 5.07 0 0 1-.679-.044 5.25 5.25 0 0 1-.735-.16c-.269-.077-.47-.14-.602-.186a50.337 50.337 0 0 1-.71-.263c-.34-.128-.55-.205-.626-.23a11.58 11.58 0 0 1-2.24-1.064c-1.083-.675-2.209-1.597-3.377-2.767-1.169-1.17-2.09-2.298-2.764-3.383a11.61 11.61 0 0 1-1.061-2.242 27.322 27.322 0 0 0-.23-.628 50.499 50.499 0 0 1-.263-.71 10.996 10.996 0 0 1-.185-.603 5.27 5.27 0 0 1-.16-.736 5.092 5.092 0 0 1-.045-.68c0-.785.217-1.58.652-2.383.478-.862.93-1.383 1.356-1.563.214-.094.506-.183.877-.269.37-.085.672-.128.902-.128.12 0 .209.013.268.039.154.05.38.376.679.973.093.163.221.393.383.692.162.3.312.57.448.814.137.243.269.472.397.685.025.034.1.141.224.32.123.18.215.332.275.455.06.124.09.246.09.366 0 .17-.122.384-.365.64a6.24 6.24 0 0 1-.794.705c-.285.213-.55.44-.793.679-.243.239-.364.435-.364.59 0 .076.02.172.064.287.042.116.078.203.108.263s.09.162.18.308c.089.145.138.226.147.243.648 1.17 1.39 2.174 2.226 3.01.836.838 1.838 1.58 3.006 2.23.017.009.098.058.243.147.145.09.248.15.307.18.06.03.148.066.263.109a.863.863 0 0 0 .288.064c.153 0 .35-.122.588-.365.239-.244.465-.509.678-.795.213-.286.448-.55.704-.794.256-.244.469-.365.64-.365.119 0 .24.03.364.09s.275.151.454.275c.18.124.286.198.32.224.213.128.442.26.685.397.243.137.514.286.812.449.299.162.529.29.69.384.598.299.922.525.973.68.026.059.039.149.039.268z"/>
</svg>
