<svg xmlns="http://www.w3.org/2000/svg" width="17" height="15" viewBox="0 0 17 15">
    <path fill="#FFF" fill-rule="nonzero" d="M14.682.137H2.318C1.005.137 0 1.148 0 2.471v9.333c0 1.322 1.005 2.333 2.318 2.333h12.364c1.313 0 2.318-1.01 2.318-2.333V2.47C17 1.148 15.995.137 14.682.137zM2.318 1.693h12.364c.309 0 .54.155.695.466L8.5 6.982 1.623 2.159c.154-.31.386-.466.695-.466zm12.364 10.889H2.318c-.463 0-.773-.311-.773-.778V3.948l6.491 4.59c.155.077.31.155.464.155.155 0 .31-.078.464-.156l6.49-4.589v7.856c0 .467-.309.778-.772.778z"/>
</svg>
