<svg xmlns="http://www.w3.org/2000/svg" width="73" height="69" viewBox="0 0 73 69">
    <defs>
        <linearGradient id="a" x1="113.663%" x2="-22.376%" y1="128.595%" y2="-19.745%">
            <stop offset="0%" stop-color="#1FCCD8"/>
            <stop offset="100%" stop-color="#12E3C0"/>
        </linearGradient>
        <linearGradient id="b" x1="113.663%" x2="-22.376%" y1="135.578%" y2="-25.942%">
            <stop offset="0%" stop-color="#1FCCD8"/>
            <stop offset="100%" stop-color="#12E3C0"/>
        </linearGradient>
    </defs>
    <g fill="none" fill-rule="nonzero">
        <path fill="url(#a)" d="M71.913 38.664c-.532-3.71-3.428-6.625-7.114-7.16v-2.197c0-6.059-4.576-10.992-10.2-10.992-5.462 0-10.035 4.784-10.2 10.664h.07l-.07.012v23.804c0 7.61-5.652 13.79-12.6 13.79-6.947 0-12.6-6.189-12.6-13.79v-2.062c1.74 0 3.6-1.27 3.6-4.832v-3.038C30.502 40.881 36 34.225 36 26.678v-2.519h-2.4l-.05-15.72c-.017-2.91-2.092-5.395-4.937-5.913A3.576 3.576 0 0 0 24.097.218c-1.88.617-2.906 2.652-2.293 4.545A3.576 3.576 0 0 0 26.32 7.07a3.59 3.59 0 0 0 2.21-2.083 3.62 3.62 0 0 1 2.616 3.457L31.2 24.16h-2.4v2.554c-.096 4.201-2.895 7.852-6.908 9.012a10.843 10.843 0 0 1-6.6 0c-4.008-1.164-6.8-4.814-6.892-9.012v-2.554H4.8V8.456a3.62 3.62 0 0 1 2.664-3.483 3.61 3.61 0 0 0 4.689 2.057c1.859-.735 2.774-2.848 2.044-4.72a3.61 3.61 0 0 0-6.808.21c-2.875.494-4.981 3-4.989 5.936V24.16H0v2.513c0 7.555 5.502 14.214 13.2 16.191v3.038c0 3.562 1.86 4.832 3.6 4.832v2.062C16.8 61.733 23.528 69 31.8 69c8.271 0 15-7.275 15-16.205V29.049c.12-4.584 3.62-8.314 7.8-8.314 4.3 0 7.799 3.846 7.799 8.576v2.192c-4.592.667-7.776 4.955-7.114 9.577.663 4.622 4.922 7.827 9.514 7.16 4.592-.667 7.776-4.954 7.114-9.576zM25.2 4.833c-.663 0-1.2-.541-1.2-1.208 0-.667.537-1.208 1.2-1.208.662 0 1.2.54 1.2 1.208 0 .667-.538 1.208-1.2 1.208zM10.8 2.417c.663 0 1.2.54 1.2 1.208 0 .667-.537 1.208-1.2 1.208-.663 0-1.2-.541-1.2-1.208 0-.667.537-1.208 1.2-1.208zM2.4 26.672v-.097H6v.138c.09 5.25 3.56 9.831 8.565 11.31a13.27 13.27 0 0 0 8.062 0c5.008-1.477 8.48-6.059 8.573-11.31v-.138h2.4v.097c0 6.72-5.146 12.632-12.24 14.062-1.666.336-3.373.42-5.063.25a15.58 15.58 0 0 1-1.657-.253C7.545 39.304 2.4 33.391 2.4 26.671zm14.4 21.645c-1.08 0-1.2-1.691-1.2-2.416v-2.563c.096.012.194.017.291.027.12.013.24.023.36.034.568.05 1.14.084 1.718.085h.06c.576 0 1.147-.035 1.71-.085.12-.011.248-.021.371-.034.095-.011.194-.015.288-.027v2.563c0 .725-.12 2.416-1.2 2.416H16.8zm46.799-2.416c-3.314 0-6-2.704-6-6.04 0-3.335 2.686-6.039 6-6.039s6 2.704 6 6.04c-.004 3.334-2.688 6.035-6 6.04z" transform="translate(.5)"/>
        <path fill="url(#b)" d="M63 36a3 3 0 1 0 0 6 3 3 0 0 0 0-6zm0 4a1 1 0 1 1 0-2 1 1 0 0 1 0 2z" transform="translate(.5)"/>
    </g>
</svg>
