<svg xmlns="http://www.w3.org/2000/svg" width="134" height="31" viewBox="0 0 134 31">
    <path fill="#FFF" fill-rule="evenodd" d="M.22.2h8.712v23.892h14.696V31H.22V.2zm26.84 0h8.712V31H27.06V.2zm38.588 14.74c1.76.616 3.139 1.577 4.136 2.882.997 1.305 1.496 2.882 1.496 4.73 0 2.699-1.085 4.781-3.256 6.248-2.17 1.467-5.31 2.2-9.416 2.2H41.976V.2h15.752c3.93 0 6.923.726 8.976 2.178 2.053 1.452 3.08 3.41 3.08 5.874 0 1.467-.36 2.78-1.078 3.938-.719 1.159-1.738 2.075-3.058 2.75zM50.6 6.492v5.94h5.984c2.933 0 4.4-.997 4.4-2.992 0-1.965-1.467-2.948-4.4-2.948H50.6zm7.304 18.216c3.05 0 4.576-1.041 4.576-3.124s-1.525-3.124-4.576-3.124H50.6v6.248h7.304zm42.636-.44V31H75.812V.2h24.156v6.732H84.436v5.192H98.12v6.512H84.436v5.632h16.104zm18.304-1.452h-4.752V31h-8.712V.2h14.08c2.787 0 5.207.462 7.26 1.386 2.053.924 3.637 2.244 4.752 3.96 1.115 1.716 1.672 3.733 1.672 6.05 0 2.23-.52 4.173-1.562 5.83-1.041 1.657-2.53 2.955-4.466 3.894L133.76 31h-9.328l-5.588-8.184zm5.5-11.22c0-1.437-.455-2.552-1.364-3.344-.91-.792-2.259-1.188-4.048-1.188h-4.84v9.02h4.84c1.79 0 3.139-.389 4.048-1.166.91-.777 1.364-1.885 1.364-3.322z"/>
</svg>
