<svg xmlns="http://www.w3.org/2000/svg" width="62" height="62" viewBox="0 0 62 62">
    <defs>
        <linearGradient id="a" x1="113.663%" x2="-22.376%" y1="135.578%" y2="-25.942%">
            <stop offset="0%" stop-color="#1FCCD8"/>
            <stop offset="100%" stop-color="#12E3C0"/>
        </linearGradient>
    </defs>
    <g fill="url(#a)" fill-rule="nonzero" transform="translate(-569 -1380)">
        <path d="M608.975 1435.35v-5.217c9.87-.806 17.46-9.07 17.425-18.973v-11.019c-.01-9.42-7.645-17.055-17.066-17.066h-16.759V1380h-14.35v12.3h3.075v7.175h1.025v6.15h6.15v-6.15h1.025v-7.175h3.075v-3.075h16.759c6.026.006 10.91 4.89 10.916 10.916v11.019c-.01 7.002-5.596 12.721-12.595 12.899A7.175 7.175 0 0 0 601.8 1421h-4.1a7.193 7.193 0 0 0-4.693 1.76 9.273 9.273 0 0 1-4.532-7.91v-1.025h11.275v-6.15h-28.7v6.15h11.275v1.025a15.427 15.427 0 0 0 8.2 13.583v6.917H569v6.15h61.5v-6.15h-21.525zm-22.55-31.775h-2.05v-4.1h2.05v4.1zm1.025-6.15h-4.1v-5.125h4.1v5.125zm3.075-7.175h-10.25v-8.2h10.25v8.2zm31.775 20.91v-11.019c-.008-7.157-5.809-12.958-12.966-12.966h-16.759v-2.05h16.759c8.29.01 15.006 6.727 15.016 15.016v11.019c.035 8.776-6.637 16.126-15.375 16.937 0-.102-.02-.197-.025-.296a7.418 7.418 0 0 0-.054-.66c-.018-.124-.05-.246-.075-.37a7.166 7.166 0 0 0-.135-.592c-.011-.037-.015-.076-.027-.112 7.717-.696 13.631-7.159 13.641-14.907zm-49.2.615v-2.05h24.6v2.05h-24.6zm11.275 3.075v-1.025h2.05v1.025a11.34 11.34 0 0 0 5.227 9.485c-.052.084-.113.165-.16.25a7.17 7.17 0 0 0-.698 1.648 13.375 13.375 0 0 1-6.419-11.383zm44.075 24.6h-57.4v-2.05h21.525v-9.225c0-.094 0-.181.01-.307a4.956 4.956 0 0 1 .692-2.273 4.37 4.37 0 0 1 .639-.87 5.147 5.147 0 0 1 3.784-1.675h4.1a5.131 5.131 0 0 1 4.437 2.57c.457.774.694 1.657.688 2.555v9.225h21.525v2.05z"/>
        <path d="M599.75 1423.5a3.75 3.75 0 1 0 0 7.5 3.75 3.75 0 0 0 0-7.5zm0 5.625a1.875 1.875 0 1 1 0-3.75 1.875 1.875 0 0 1 0 3.75z"/>
    </g>
</svg>
