<svg xmlns="http://www.w3.org/2000/svg" width="36" height="36" viewBox="0 0 36 36">
    <defs>
        <linearGradient id="a" x1="100%" x2="0%" y1="50%" y2="50%">
            <stop offset="0%" stop-color="#7CE3D2"/>
            <stop offset="100%" stop-color="#12E3C0"/>
        </linearGradient>
    </defs>
    <path fill="url(#a)" fill-rule="evenodd" d="M36 28.432c0 .46-.085 1.06-.256 1.802-.17.742-.35 1.326-.537 1.752-.358.852-1.397 1.755-3.119 2.71-1.602.87-3.187 1.304-4.756 1.304-.46 0-.912-.03-1.355-.09-.443-.06-.933-.166-1.47-.32a21.92 21.92 0 0 1-1.202-.37c-.264-.094-.737-.268-1.419-.524-.681-.256-1.1-.41-1.252-.46-1.67-.597-3.162-1.304-4.475-2.122-2.165-1.347-4.415-3.188-6.75-5.523-2.335-2.335-4.176-4.585-5.523-6.75-.818-1.313-1.525-2.804-2.122-4.475a54.476 54.476 0 0 0-.46-1.252c-.256-.682-.43-1.155-.524-1.42a21.92 21.92 0 0 1-.37-1.201 10.505 10.505 0 0 1-.32-1.47C.03 9.58 0 9.128 0 8.668c0-1.569.435-3.154 1.304-4.756.955-1.722 1.858-2.761 2.71-3.12C4.44.606 5.024.427 5.766.257 6.507.086 7.108 0 7.568 0c.239 0 .418.026.537.077.307.102.759.75 1.355 1.943.188.324.443.784.767 1.38.324.597.622 1.138.895 1.624.273.486.537.942.793 1.368.05.068.2.281.447.64.247.357.43.66.55.907.12.247.179.49.179.729 0 .34-.243.767-.729 1.278s-1.014.98-1.585 1.406c-.571.426-1.1.878-1.585 1.355-.486.478-.729.87-.729 1.177 0 .153.043.345.128.575.085.23.158.405.217.524.06.12.18.324.358.614.18.29.277.451.294.485 1.296 2.336 2.779 4.338 4.45 6.009 1.67 1.67 3.672 3.153 6.008 4.449.034.017.196.115.485.294.29.179.495.298.614.358.12.06.294.132.524.217.23.085.422.128.575.128.307 0 .7-.243 1.177-.729.477-.486.929-1.014 1.355-1.585.426-.571.895-1.1 1.406-1.585.511-.486.937-.729 1.278-.729.239 0 .482.06.73.18.246.118.549.302.907.549.358.247.57.396.639.447.426.256.882.52 1.368.793.486.273 1.027.57 1.623.895.597.324 1.057.58 1.381.767 1.193.596 1.841 1.048 1.943 1.355.051.12.077.298.077.537z"/>
</svg>
