<svg xmlns="http://www.w3.org/2000/svg" width="68" height="62" viewBox="0 0 68 62">
    <defs>
        <linearGradient id="a" x1="113.663%" x2="-22.376%" y1="121.011%" y2="-13.016%">
            <stop offset="0%" stop-color="#1FCCD8"/>
            <stop offset="100%" stop-color="#12E3C0"/>
        </linearGradient>
        <linearGradient id="b" x1="54.029%" x2="45.419%" y1="135.578%" y2="-25.942%">
            <stop offset="0%" stop-color="#1FCCD8"/>
            <stop offset="100%" stop-color="#12E3C0"/>
        </linearGradient>
        <linearGradient id="c" x1="113.663%" x2="-22.376%" y1="134.512%" y2="-24.996%">
            <stop offset="0%" stop-color="#1FCCD8"/>
            <stop offset="100%" stop-color="#12E3C0"/>
        </linearGradient>
    </defs>
    <g fill="none" fill-rule="evenodd">
        <path fill="url(#a)" fill-rule="nonzero" d="M66.237 50.204H64.99a7.752 7.752 0 0 0 .15-11.01 7.833 7.833 0 0 0-1.61-1.262 7.8 7.8 0 0 0 3.83-6.694c-.006-4.31-3.521-7.804-7.859-7.81H49.397V15.62a1.12 1.12 0 0 0-1.293-1.102L34.802 16.55v-1.042a5.597 5.597 0 0 0 4.491-5.467c0-4.869-4.622-9.519-4.82-9.714a1.128 1.128 0 0 0-1.587 0c-.197.195-4.82 4.845-4.82 9.714a5.597 5.597 0 0 0 4.491 5.467v1.387L18.915 18.98a1.118 1.118 0 0 0-.952 1.1v12.43a12.27 12.27 0 0 0-2.807-2.238c-.347-.199-.775-.199-1.123 0a12.324 12.324 0 0 0-6.062 9.021 12.26 12.26 0 0 0-2.358-.246c-.495.002-.99.034-1.482.096-.398.048-.74.303-.898.67-2.287 5.332-.505 11.528 4.274 14.853H0v2.231h2.674l1.935 3.846c.19.378.579.617 1.004.617h42.661c.62 0 1.123-.5 1.123-1.116v-3.347h7.165l1.934 3.846c.19.378.58.617 1.005.617h4.49c.62 0 1.123-.5 1.123-1.116v-3.347h1.123c.62 0 1.123-.5 1.123-1.115V51.32a1.12 1.12 0 0 0-1.123-1.116zm-1.123-5.578c-.003 3.08-2.514 5.575-5.613 5.578H39.293c-3.1 0-5.613-2.497-5.613-5.578 0-3.08 2.513-5.578 5.613-5.578h14.595c1.86 0 3.368 1.498 3.368 3.347 0 1.848-1.508 3.347-3.368 3.347H42.66c-.62 0-1.123-.5-1.123-1.116a1.12 1.12 0 0 1 1.123-1.116h7.859v-2.23H42.66c-1.86 0-3.368 1.498-3.368 3.346 0 1.849 1.508 3.347 3.368 3.347h11.227c3.098-.004 5.61-2.499 5.613-5.578a5.498 5.498 0 0 0-1.152-3.347h1.152c3.099.004 5.61 2.499 5.613 5.578zm-8.98-18.966c1.86 0 3.367 1.499 3.367 3.347 0 1.849-1.508 3.347-3.368 3.347H44.906c-.62 0-1.122-.5-1.122-1.116a1.12 1.12 0 0 1 1.122-1.115h7.86V27.89h-7.86c-1.86 0-3.368 1.499-3.368 3.347 0 1.849 1.508 3.347 3.368 3.347h11.227c3.099-.003 5.61-2.499 5.613-5.578a5.502 5.502 0 0 0-1.037-3.209c3.023.682 4.918 3.67 4.232 6.675a5.605 5.605 0 0 1-5.44 4.344H43.784c-3.1 0-5.614-2.498-5.614-5.579 0-3.08 2.514-5.578 5.614-5.578h12.35zM30.311 10.041c0-2.853 2.161-5.82 3.368-7.252 1.208 1.432 3.368 4.393 3.368 7.252a3.348 3.348 0 0 1-2.246 3.142v-2.026h-2.245v2.026a3.348 3.348 0 0 1-2.245-3.142zM14.595 32.553a10.065 10.065 0 0 1 4.428 7.37 12.38 12.38 0 0 0-4.418 2.988 12.43 12.43 0 0 0-4.44-2.97 10.063 10.063 0 0 1 4.43-7.388zm5.631 9.294a10.165 10.165 0 0 1 3.35-.568c.176 0 .36.007.552.02 1.85 5.231-.919 10.962-6.184 12.8a10.166 10.166 0 0 1-3.35.568c-.176 0-.36-.007-.552-.019-1.85-5.232.92-10.963 6.184-12.801zm-15.735 2.78a9.925 9.925 0 0 1 .57-3.329 10.027 10.027 0 0 1 8.133 3.403 12.018 12.018 0 0 0-1.606 9.513c-4.222-1.308-7.098-5.193-7.097-9.588zM22.882 59.13H6.307l-1.123-2.232h18.82l-1.122 2.232zm10.798 0h-8.288l1.123-2.232h2.674v-2.231h-7.516c4.784-3.32 6.571-9.518 4.283-14.853a1.122 1.122 0 0 0-.898-.669 11.904 11.904 0 0 0-3.836.134 12.163 12.163 0 0 0-1.086-3.578h.072V21.039l26.944-4.119v6.509h-3.368c-4.335-.006-7.853 3.482-7.86 7.789a7.776 7.776 0 0 0 2.437 5.659c-4.303.504-7.38 4.38-6.872 8.657a7.778 7.778 0 0 0 2.315 4.67h-1.247c-.62 0-1.122.5-1.122 1.116v4.463a1.12 1.12 0 0 0 1.122 1.115h1.123v2.232zm4.92 0h-2.675v-2.232h3.797l-1.123 2.232zm8.552 0H41.11l1.122-2.232h4.92v2.232zm15.717 0h-2.674l-1.123-2.232h3.797v2.232zm2.245-4.463H33.68v-2.231h31.434v2.23z" transform="translate(.5 .5)"/>
        <path fill="url(#b)" d="M22.453 23.429h2.245v8.925h-2.245z" transform="translate(.5 .5)"/>
        <path fill="url(#c)" d="M22.453 34.585h2.245v2.231h-2.245z" transform="translate(.5 .5)"/>
    </g>
</svg>
