<svg xmlns="http://www.w3.org/2000/svg" xmlns:xlink="http://www.w3.org/1999/xlink" width="13.911" height="12.444" viewBox="0 0 13.911 12.444">
  <defs>
    <linearGradient id="linear-gradient" x1="0.063" y1="1" x2="1" gradientUnits="objectBoundingBox">
      <stop offset="0" stop-color="#ffc726"/>
      <stop offset="1" stop-color="#f99716"/>
    </linearGradient>
  </defs>
  <path id="Star_-_FontAwesome" data-name="Star - FontAwesome" d="M13.911,4.822a.574.574,0,0,1-.217.376L10.659,7.974l.719,3.921a.986.986,0,0,1,.008.157c0,.2-.1.392-.343.392a.712.712,0,0,1-.334-.094L6.955,10.5,3.2,12.35a.74.74,0,0,1-.334.094.351.351,0,0,1-.351-.392,1,1,0,0,1,.017-.157l.719-3.921L.209,5.2A.6.6,0,0,1,0,4.822c0-.235.259-.329.468-.361l4.2-.572L6.546.321A.513.513,0,0,1,6.955,0a.513.513,0,0,1,.41.321L9.246,3.889l4.2.572C13.643,4.493,13.911,4.587,13.911,4.822Z" fill="url(#linear-gradient)"/>
</svg>
